<?xml version="1.0" encoding="UTF-8" standalone="no"?>
<svg
   xmlns:dc="http://purl.org/dc/elements/1.1/"
   xmlns:cc="http://creativecommons.org/ns#"
   xmlns:rdf="http://www.w3.org/1999/02/22-rdf-syntax-ns#"
   xmlns:svg="http://www.w3.org/2000/svg"
   xmlns="http://www.w3.org/2000/svg"
   xmlns:sodipodi="http://sodipodi.sourceforge.net/DTD/sodipodi-0.dtd"
   xmlns:inkscape="http://www.inkscape.org/namespaces/inkscape"
   version="1.1"
   id="svg2"
   xml:space="preserve"
   width="210.82668"
   height="210.82668"
   viewBox="0 0 210.82668 210.82668"
   sodipodi:docname="logo (1).eps"><metadata
     id="metadata8"><rdf:RDF><cc:Work
         rdf:about=""><dc:format>image/svg+xml</dc:format><dc:type
           rdf:resource="http://purl.org/dc/dcmitype/StillImage" /></cc:Work></rdf:RDF></metadata><defs
     id="defs6" /><sodipodi:namedview
     pagecolor="#ffffff"
     bordercolor="#666666"
     borderopacity="1"
     objecttolerance="10"
     gridtolerance="10"
     guidetolerance="10"
     inkscape:pageopacity="0"
     inkscape:pageshadow="2"
     inkscape:window-width="640"
     inkscape:window-height="480"
     id="namedview4" /><g
     id="g10"
     inkscape:groupmode="layer"
     inkscape:label="ink_ext_XXXXXX"
     transform="matrix(1.3333333,0,0,-1.3333333,0,210.82667)"><g
       id="g12"
       transform="scale(0.1)"><path
         d="m 961.012,823.285 66.148,30.102 c 0,0 0.06,-38.438 -12.59,-46.203 -13.48,-8.27 -16.898,-7.879 -28.187,-3.504 -11.75,4.558 -25.371,13.3 -25.371,13.3 v 6.305"
         style="fill:#4951ac;fill-opacity:1;fill-rule:nonzero;stroke:none"
         id="path14" /><path
         d="m 1146.56,906.551 c -6.48,-3.672 -29.58,-11.547 -29.58,-11.547 L 969.273,841.625 839.762,794.371 c 0,0 -70.703,-24.152 -77.356,-25.898 -6.648,-1.75 -54.953,-15.051 -96.605,-16.809 -41.656,-1.746 -70.356,0.352 -106.758,9.102 -44.805,9.101 -85.758,33.257 -110.258,63.707 -15.055,21.351 -27.301,51.804 -30.453,91.707 -3.152,39.902 10.852,109.21 30.102,146.66 19.254,37.45 52.504,82.61 87.855,107.81 25.551,19.6 65.453,42.7 99.059,51.8 26.25,8.05 74.906,18.55 116.207,15.4 41.3,-3.15 85.406,-14 114.105,-26.95 24.5,-11.2 74.91,-40.95 102.91,-69.65 27.996,-28.71 65.46,-81.21 83.31,-138.96 0,0 5.6,-18.556 6.3,-24.86 0.69,-6.297 0.69,-6.297 0.69,-6.297 l -3.14,4.551 c 0,0 -53.91,133.706 -169.417,175.016 -114.805,28 -179.911,24.5 -273.766,-47.18 -74.156,-71.13 -88.156,-138.336 -95.856,-167.739 l -20.304,66.509 c 0,0 -19.598,-39.208 14.004,-119.013 33.597,-79.804 125.308,-93.105 140.707,-94.507 18.55,-5.426 128.113,-1.227 128.113,-1.227 l 2.273,7.355 -44.281,29.051 1.051,4.375 20.301,1.399 c 8.226,0.351 16.449,0.351 24.679,-3.496 8.575,-3.157 33.079,-8.055 49.875,-5.254 16.106,3.148 29.758,7.527 43.75,15.226 14.004,7.703 23.106,13.125 30.461,18.727 L 791.984,929.48 c 0,0 19.426,11.375 32.551,14.176 13.125,2.797 36.231,2.973 57.227,-5.953 18.379,-7.172 47.609,-19.949 56.008,-21.176 8.398,-1.226 33.132,-3.972 58.796,-1.746 26.264,2.274 53.214,5.422 66.514,8.223 13.3,2.801 74.9,14.004 74.9,14.004 l 3.74,0.633 c 0,0 4.4,0 7.22,-1.578 2.82,-1.571 14.04,-8.266 14.38,-8.266 l -5.65,-9.258 c 0,0 -3.67,-5.512 -4.85,-6.82 -1.18,-1.313 -4.45,-4.223 -6.26,-5.168"
         style="fill:#4951ac;fill-opacity:1;fill-rule:nonzero;stroke:none"
         id="path16" /><path
         d="m 1017.4,740.688 c -5.92,-11.25 -29.103,-49.188 -50.345,-66.114 -14.989,-15.164 -53.653,-43.34 -66.211,-50.781 -12.547,-7.441 -58.258,-31.191 -96.434,-37.332 -38.105,-6.152 -47.379,-9.723 -82.984,-7.859 -35.606,1.918 -68.887,7.3 -92.758,15.906 -20.426,7.383 -45.961,18.867 -71.047,34.414 -4.219,2.519 -8.363,5.254 -12.508,8.125 -4.976,3.203 -10.371,7.234 -15.976,11.668 -6.657,8.086 -10.567,17.5 -10.625,27.617 -0.024,4.336 0.64,8.613 1.992,12.676 l 0.547,-0.125 c 3.652,11.648 17.027,20.34 32.996,20.43 10.672,0.066 20.191,-3.665 26.496,-9.688 9.812,16.922 30.535,28.613 54.559,28.758 14.117,0.078 27.152,-3.836 37.586,-10.586 16.289,16.406 42.113,27.031 71.234,27.199 18.242,0.106 35.273,-3.848 49.422,-10.859 10.5,17.273 29.504,28.886 51.261,29.011 9.844,0.059 19.149,-2.226 27.364,-6.308 2.597,4.348 5.937,8.918 10.117,13.137 0,0 18.828,17.601 36.629,22.25 17.871,4.648 43.086,2.386 54.621,-3.188 11.59,-5.508 30.594,-17.648 36.544,-22.16 6.01,-4.512 13.38,-15 7.52,-26.191"
         style="fill:#f69a19;fill-opacity:1;fill-rule:nonzero;stroke:none"
         id="path18" /><path
         d="m 300.348,490.23 c -5.297,0 -13.461,0.418 -24.485,1.282 -10.742,0.789 -18.898,1.148 -24.484,1.078 h -7.629 c 0.215,-9.879 1.184,-25.93 2.902,-48.11 1.571,-20.699 2.364,-36.769 2.364,-48.23 0,-2.512 0.246,-6.289 0.75,-11.379 0.5,-5.082 0.746,-8.922 0.746,-11.492 0,-4.867 -0.785,-9.059 -2.356,-12.57 -2.008,-4.719 -5.125,-7.079 -9.347,-7.079 -2.86,0 -5.438,1 -7.731,3 -2.293,2 -3.437,4.579 -3.437,7.739 0,1.07 0.175,2.679 0.539,4.832 0.355,2.148 0.535,3.758 0.535,4.84 0,3.5 -0.235,8.757 -0.695,15.781 -0.469,7.019 -0.7,12.308 -0.7,15.887 0,10.242 -0.824,24.632 -2.472,43.179 -1.719,20.043 -2.684,34.434 -2.899,43.16 l -9.769,-0.089 c -15.684,0 -28,1.14 -36.95,3.421 -5.796,1.508 -8.695,5.051 -8.695,10.641 0,2.938 0.926,5.508 2.793,7.731 2.149,2.507 4.902,3.648 8.266,3.437 2.508,-0.148 8.238,-0.789 17.187,-1.93 7.153,-0.859 12.953,-1.289 17.399,-1.289 4.297,0 10.804,0.078 19.543,0.27 8.738,0.18 15.25,0.262 19.547,0.262 5.511,0 13.691,-0.391 24.543,-1.18 10.843,-0.793 19.023,-1.184 24.535,-1.184 3.074,0 5.656,-1.047 7.734,-3.168 2.074,-2.109 3.109,-4.742 3.109,-7.89 0,-3.078 -1.035,-5.68 -3.109,-7.789 -2.078,-2.11 -4.66,-3.161 -7.734,-3.161"
         style="fill:#4951ac;fill-opacity:1;fill-rule:nonzero;stroke:none"
         id="path20" /><path
         d="m 399.902,474.121 -30.718,-49.519 c 8.664,2.218 21.804,4.91 39.421,8.058 z m 37.907,-122.762 c -6.586,0 -12.317,8.45 -17.18,25.352 -1.863,6.437 -4.188,17.719 -6.981,33.828 -7.304,-1 -16.859,-2.789 -28.675,-5.367 l -28.567,-5.91 c -3.578,-9.383 -9.703,-23.082 -18.363,-41.133 -2.289,-4.008 -5.406,-6.02 -9.348,-6.02 -2.859,0 -5.418,1.039 -7.675,3.121 -2.254,2.079 -3.383,4.661 -3.383,7.731 0,3.437 5.406,16.508 16.215,39.199 -1.215,1.86 -1.825,4.012 -1.825,6.449 0,5.789 3.504,9.52 10.528,11.161 8.16,15.32 18.472,32.941 30.925,52.839 16.969,27.141 27.532,40.7 31.68,40.7 5.656,0 9.524,-3.93 11.602,-11.809 l 6.769,-36.09 16,-74.629 6.117,-16.972 c 2.079,-5.797 3.118,-9.661 3.118,-11.598 0,-3.07 -1.11,-5.652 -3.332,-7.731 -2.219,-2.07 -4.758,-3.121 -7.625,-3.121"
         style="fill:#4951ac;fill-opacity:1;fill-rule:nonzero;stroke:none"
         id="path22" /><path
         d="m 588.273,350.18 c -10.886,0 -26.382,9.558 -46.5,28.679 l -32.113,32.332 v -1.511 l -0.109,-56.282 c 0,-7.089 -3.113,-10.628 -9.344,-10.628 -4.078,0 -7.336,1.789 -9.773,5.371 -2,2.937 -3.008,6.121 -3.008,9.558 0,16.762 0.5,41.821 1.504,75.18 1.008,33.359 1.504,58.383 1.504,75.062 0,3.079 1.023,5.7 3.062,7.848 2.043,2.141 4.567,3.223 7.57,3.223 3.079,0 5.637,-1.082 7.68,-3.223 2.039,-2.148 3.063,-4.769 3.063,-7.848 0,-6.941 -0.43,-17.75 -1.289,-32.429 -0.86,-14.184 -1.258,-25.024 -1.184,-32.543 9.594,9.09 20.445,20.511 32.539,34.261 l 30.824,35.758 c 2.434,2.801 5.156,4.192 8.164,4.192 2.864,0 5.407,-1.071 7.625,-3.219 2.223,-2.152 3.328,-4.77 3.328,-7.84 0,-4.73 -9.23,-17.332 -27.711,-37.812 -12.742,-13.957 -25.917,-27.629 -39.519,-41.02 8.594,-9.019 22.055,-21.969 40.379,-38.879 l 11.281,-9.449 c 4.078,-3.152 8.484,-5.512 13.207,-7.082 5.656,-1.867 8.488,-5.41 8.488,-10.641 0,-2.429 -0.753,-4.758 -2.257,-6.976 -1.864,-2.711 -4.332,-4.082 -7.411,-4.082"
         style="fill:#4951ac;fill-opacity:1;fill-rule:nonzero;stroke:none"
         id="path24" /><path
         d="m 718.547,499.141 c -1.008,0 -2.117,0.168 -3.332,0.531 -12.106,3.437 -23.774,5.156 -35.016,5.156 -5.867,0 -12.277,-0.539 -19.222,-1.609 -6.942,-1.078 -14.422,-2.719 -22.446,-4.938 0.645,-4.652 0.973,-8.371 0.973,-11.172 0,-9.961 -0.613,-23.629 -1.828,-41.019 l 47.035,4.512 c 13.82,1.429 22.301,2.148 25.457,2.148 3.148,0 5.793,-1.012 7.941,-3.012 2.157,-2.008 3.227,-4.699 3.227,-8.058 0,-6.508 -3.297,-10.16 -9.879,-10.95 l -25.562,-2.261 -49.614,-4.508 c -0.289,-5.082 -0.523,-9.891 -0.699,-14.441 -0.18,-4.551 -0.269,-8.79 -0.269,-12.731 0,-15.82 1.144,-25.129 3.437,-27.918 1.719,-2.012 7.336,-3.012 16.855,-3.012 4.446,0 11.118,0.121 20.036,0.371 8.91,0.258 15.625,0.391 20.136,0.391 1.43,0 3.543,0.219 6.332,0.688 2.793,0.472 4.868,0.703 6.231,0.703 7.59,0 11.387,-3.731 11.387,-11.172 0,-6.02 -3.047,-9.629 -9.129,-10.852 -6.731,-1.359 -21.305,-2.039 -43.711,-2.039 -22.196,0 -36.446,2.942 -42.746,8.813 -6.871,6.379 -10.305,21.047 -10.305,44.027 0,4.582 0.105,9.59 0.32,15.039 0.215,5.442 0.496,11.313 0.86,17.613 -0.793,1.649 -1.18,3.399 -1.18,5.258 0,2.43 0.676,4.621 2.039,6.551 1.43,20.699 2.148,35.98 2.148,45.859 0,2.653 -0.363,6.539 -1.074,11.653 -0.719,5.117 -1.074,9.008 -1.074,11.648 0,8.52 3.578,12.789 10.738,12.789 3.008,0 5.586,-1.051 7.735,-3.121 8.593,2.293 16.699,4.012 24.324,5.16 7.621,1.141 14.801,1.723 21.527,1.723 17.399,0 31.289,-2.082 41.672,-6.231 4.801,-1.941 7.195,-5.371 7.195,-10.32 0,-2.859 -0.925,-5.41 -2.793,-7.621 -2.074,-2.43 -4.652,-3.648 -7.726,-3.648"
         style="fill:#4951ac;fill-opacity:1;fill-rule:nonzero;stroke:none"
         id="path26" /><path
         d="m 898.211,474.121 -30.715,-49.519 c 8.672,2.218 21.797,4.91 39.414,8.058 z m 37.918,-122.762 c -6.594,0 -12.324,8.45 -17.188,25.352 -1.867,6.437 -4.187,17.719 -6.98,33.828 -7.309,-1 -16.859,-2.789 -28.664,-5.367 l -28.574,-5.91 c -3.586,-9.383 -9.719,-23.082 -18.371,-41.133 -2.293,-4.008 -5.399,-6.02 -9.344,-6.02 -2.863,0 -5.41,1.039 -7.676,3.121 -2.258,2.079 -3.379,4.661 -3.379,7.731 0,3.437 5.41,16.508 16.219,39.199 -1.219,1.86 -1.836,4.012 -1.836,6.449 0,5.789 3.508,9.52 10.519,11.161 8.172,15.32 18.485,32.941 30.938,52.839 16.961,27.141 27.527,40.7 31.68,40.7 5.664,0 9.519,-3.93 11.613,-11.809 l 6.746,-36.09 16.004,-74.629 6.125,-16.972 c 2.09,-5.797 3.113,-9.661 3.113,-11.598 0,-3.07 -1.113,-5.652 -3.328,-7.731 -2.219,-2.07 -4.758,-3.121 -7.617,-3.121"
         style="fill:#4951ac;fill-opacity:1;fill-rule:nonzero;stroke:none"
         id="path28" /><path
         d="m 1147.27,495.699 c -1.29,0 -2.66,0.289 -4.08,0.86 -8.89,3.3 -20.63,4.941 -35.24,4.941 -4.72,0 -10.26,-0.328 -16.59,-1.02 -6.33,-0.679 -13.43,-1.742 -21.32,-3.171 l -0.21,-46.387 c 13.82,3.637 24.21,5.469 31.14,5.469 11.03,0 22.45,-0.641 34.27,-1.922 6.73,-0.731 10.1,-4.379 10.1,-10.957 0,-3.223 -1.05,-5.891 -3.13,-8.012 -2.07,-2.109 -4.65,-3.16 -7.72,-3.16 -3.73,0 -9.31,0.32 -16.76,0.969 -7.44,0.64 -13.04,0.961 -16.76,0.961 -4.86,0 -15.39,-2.079 -31.57,-6.231 l -0.96,-73.891 c 0,-3.07 -1.01,-5.668 -3.01,-7.777 -2.01,-2.109 -4.56,-3.16 -7.62,-3.16 -3.08,0 -5.65,1.051 -7.69,3.16 -2.04,2.109 -3.05,4.707 -3.05,7.777 0,14.114 0.26,35.293 0.81,63.532 0.53,28.242 0.79,49.41 0.79,63.531 0,3.141 -0.05,7.891 -0.15,14.219 -0.11,6.34 -0.16,11.082 -0.16,14.23 0,3.149 0.98,5.801 2.94,7.949 1.98,2.153 4.54,3.219 7.69,3.219 2.35,0 4.46,-0.637 6.33,-1.93 8.87,1.571 16.86,2.743 23.95,3.493 7.08,0.75 13.31,1.129 18.68,1.129 8.25,0 17.65,-1.18 28.25,-3.54 14.4,-3.3 21.59,-7.589 21.59,-12.902 0,-2.859 -0.93,-5.398 -2.79,-7.617 -2.08,-2.512 -4.66,-3.762 -7.73,-3.762"
         style="fill:#4951ac;fill-opacity:1;fill-rule:nonzero;stroke:none"
         id="path30" /><path
         d="m 1272.05,358.988 c -8.09,-3.797 -20.8,-7.199 -38.12,-10.207 -15.98,-2.793 -29,-4.191 -39.09,-4.191 -7.24,0 -12.42,1.121 -15.58,3.332 -4.28,3.008 -6.44,8.527 -6.44,16.547 l 2.16,35.543 c 1.84,32.797 2.77,69.16 2.77,109.117 0,3.07 1.03,5.691 3.08,7.84 2.04,2.152 4.56,3.222 7.55,3.222 3.09,0 5.65,-1.07 7.69,-3.222 2.04,-2.149 3.06,-4.77 3.06,-7.84 0,-40.449 -0.96,-77.258 -2.89,-110.399 l -1.4,-16.332 c -0.58,-5.937 -0.79,-11.199 -0.65,-15.777 18.7,-0.223 42.32,4.188 70.88,13.207 1.22,0.352 2.36,0.543 3.44,0.543 3.08,0 5.65,-1.223 7.74,-3.66 1.78,-2.223 2.68,-4.762 2.68,-7.621 0,-4.578 -2.29,-7.949 -6.88,-10.102"
         style="fill:#4951ac;fill-opacity:1;fill-rule:nonzero;stroke:none"
         id="path32" /><path
         d="m 1408.98,491.949 c -1.71,-2.73 -4.01,-6.918 -6.87,-12.57 l -18.47,-45.649 c -7.16,-17.101 -13.9,-32.07 -20.19,-44.89 l -13.42,-23.942 -5.71,-11.597 c -2.35,-4.153 -5.54,-6.242 -9.55,-6.242 -2.79,0 -5.32,1.05 -7.63,3.121 -2.28,2.082 -3.42,4.66 -3.42,7.73 0,2.442 3.36,10.059 10.08,22.879 l 13.21,24.172 c -12.82,16.539 -21.12,29.559 -24.9,39.09 -3.23,8.078 -8.6,17.777 -16.12,29.097 -10.3,15.473 -16.37,24.801 -18.14,28.032 -1.09,1.929 -1.62,3.859 -1.62,5.8 0,3.071 1.12,5.668 3.38,7.782 2.26,2.117 4.81,3.168 7.68,3.168 3.51,0 6.46,-1.68 8.81,-5.039 l 8.59,-13.332 c 7.59,-11.239 12.6,-18.887 15.03,-22.969 5.37,-8.809 9.56,-16.969 12.58,-24.488 2.35,-5.942 7.39,-14.071 15.14,-24.383 l 24.6,59.929 c 2.77,4.942 6.65,12.563 11.59,22.872 1.99,4.878 5.32,7.308 9.98,7.308 2.87,0 5.43,-1.008 7.68,-3.008 2.26,-2.011 3.38,-4.582 3.38,-7.742 0,-3.289 -1.89,-8.34 -5.69,-15.129"
         style="fill:#4951ac;fill-opacity:1;fill-rule:nonzero;stroke:none"
         id="path34" /></g></g></svg>
